inDegrees=no
num_controls=7
num_derivatives=13
num_iterations=116
num_multipliers=7
num_parameters=0
num_slacks=7
num_states=26
objective=0.445082
objective_accelerations=0.058175
objective_balance=0.003717
objective_effort=0.023429
objective_height=0.354259
objective_ligament=0.005502
solver_duration=1733.772992
status=Solve_Succeeded
success=true
DataType=double
version=3
OpenSimVersion=4.5
endheader
time	/jointset/ground_pelvis/pelvis_tilt/value	/jointset/ground_pelvis/pelvis_tx/value	/jointset/ground_pelvis/pelvis_ty/value	/jointset/hip_l/hip_flexion_l/value	/jointset/hip_l/hip_adduction_l/value	/jointset/hip_l/hip_rotation_l/value	/jointset/back/lumbar_extension/value	/jointset/patellofemoral_l/patellar_flexion_l/value	/jointset/knee_l/knee_flexion_l/value	/jointset/knee_l/knee_adduction_l/value	/jointset/knee_l/knee_rotation_l/value	/jointset/ankle_l/ankle_angle_l/value	/jointset/subtalar_l/subtalar_angle_l/value	/jointset/ground_pelvis/pelvis_tilt/speed	/jointset/ground_pelvis/pelvis_tx/speed	/jointset/ground_pelvis/pelvis_ty/speed	/jointset/hip_l/hip_flexion_l/speed	/jointset/hip_l/hip_adduction_l/speed	/jointset/hip_l/hip_rotation_l/speed	/jointset/back/lumbar_extension/speed	/jointset/patellofemoral_l/patellar_flexion_l/speed	/jointset/knee_l/knee_flexion_l/speed	/jointset/knee_l/knee_adduction_l/speed	/jointset/knee_l/knee_rotation_l/speed	/jointset/ankle_l/ankle_angle_l/speed	/jointset/subtalar_l/subtalar_angle_l/speed	/forceset/tau_hip_flexion_l	/forceset/tau_hip_adduction_l	/forceset/tau_hip_rotation_l	/forceset/tau_knee_flexion_l	/forceset/tau_ankle_angle_l	/forceset/tau_subtalar_angle_l	/forceset/tau_lumbar_extension	lambda_cid13_p0	lambda_cid13_p1	lambda_cid13_p2	lambda_cid13_p3	lambda_cid13_p4	lambda_cid13_p5	lambda_cid14_p0	/jointset/ground_pelvis/pelvis_tilt/accel	/jointset/ground_pelvis/pelvis_tx/accel	/jointset/ground_pelvis/pelvis_ty/accel	/jointset/hip_l/hip_flexion_l/accel	/jointset/hip_l/hip_adduction_l/accel	/jointset/hip_l/hip_rotation_l/accel	/jointset/back/lumbar_extension/accel	/jointset/patellofemoral_l/patellar_flexion_l/accel	/jointset/knee_l/knee_flexion_l/accel	/jointset/knee_l/knee_adduction_l/accel	/jointset/knee_l/knee_rotation_l/accel	/jointset/ankle_l/ankle_angle_l/accel	/jointset/subtalar_l/subtalar_angle_l/accel	gamma_cid13_p0	gamma_cid13_p1	gamma_cid13_p2	gamma_cid13_p3	gamma_cid13_p4	gamma_cid13_p5	gamma_cid14_p0
1	-0.5631271666850497	-0.08800429874800957	0.5681889196239633	1.867105314285087	-0.4665827921692289	0.01504934396344531	-0.2617916416312633	1.388803019581847	1.388803019581734	-0.08249927111337203	-0.1745285665572627	0.2069435079634469	-0.01671643237059764	-0.01712622943361087	0.01117387749352307	0.00291059946724912	-0.002781284227817569	-0.002413857685003795	0.003367361656728784	-6.982819039093764e-06	0.001956378628667671	0.001956378628668129	-0.00497069026549507	-6.20450103707556e-05	0.02186249971339848	0.009505895915354879	-0.3419793282746129	0.007159883931572924	0.0002793615450397333	-0.3003006924149357	0.04195917401399887	0.03518112578588628	0.2901101914108484	-26.53210332752635	-11.52925051868891	2.525227326506551	7.419890954298919	-644.2044990226335	-50.321340600613	-1.326927622440866	1.56305929632381	0.2478571157436625	1.994345604526066	-6.925492673376677	-0.09206150813517236	-2.34199222255218	-0.02268425995814939	-5.300036689197811	-5.300036689197812	-0.6048608491873564	-0.02868646913943662	-0.6148953950399169	-0.4349231058445219	4.825157379979576e-09	1.829467566396633e-08	-1.462572559655669e-08	2.576548472531382e-09	-1.808405878503171e-09	2.389875850643292e-08	2.503803125703303e-09
1.01	-0.5632212270931093	-0.08788021912631165	0.5683175965140381	1.866732531099849	-0.4666104997635852	0.01496472688134207	-0.2617918036970728	1.388557691916797	1.388557691916887	-0.08257643032482472	-0.1745293353906178	0.2071315514877135	-0.01664170120799954	-0.001684324181641216	0.01364506383258633	0.02282089428323769	-0.07176818165044886	-0.003124806320443283	-0.02028842590159861	-2.468974216215114e-05	-0.05101959062303252	-0.05101959062303713	-0.01046072718432711	-9.174127210429044e-05	0.01574013079833975	0.005440113089489654	-0.3418845969077287	0.007263493208474176	0.0002630091271196592	-0.3001535217428325	0.0418085800273661	0.03519860689556314	0.2900440245697727	-26.56745667546592	-11.53494005865818	2.531031848255103	7.347114408592525	-644.0677095170065	-50.33187438173903	-1.331877555277426	1.53498405591934	0.2472025959053738	1.988786319154312	-6.884214128779838	-0.06018376235875997	-2.377025179328414	0.008797181575490835	-5.296026858696704	-5.296026858697466	-0.5210150713131573	0.009893678896708358	-0.6118183415704526	-0.3924439172893326	-3.907331861327936e-09	8.762443520425389e-09	2.646742233445997e-08	3.267763881407007e-09	-1.220157524327879e-08	7.678938044085978e-08	-1.003401431811763e-08
1.02	-0.563160822865392	-0.08773133700063958	0.5686452593320765	1.865670093769968	-0.466645231288518	0.01464362129228372	-0.2617921206140997	1.387782674596123	1.387782674596414	-0.08270847789708222	-0.1745304002098683	0.2072581891824631	-0.01660763548292647	0.01376669772176058	0.01613437828835647	0.04270778505998991	-0.14071211315602	-0.003818643800299086	-0.04393033973414213	-3.795306269011188e-05	-0.1039815524963561	-0.1039815524963657	-0.01594836242644033	-0.0001212421903568804	0.009581333810017075	0.001372808410352072	-0.3417898655408482	0.007367102485372504	0.0002466567092011615	-0.3000063510707288	0.04165798604073318	0.03521608800523619	0.2899778577286938	-26.60842725450088	-11.53949647658558	2.536484911423157	7.295631573833714	-644.009294494501	-50.3201498720861	-1.347019043382638	1.564882626610244	0.2514827390850363	1.989664796678795	-6.916899489964645	-0.08863927701842647	-2.339217477395395	-0.02179553943913989	-5.297235213522481	-5.297235213522487	-0.6043805138435896	-0.02864740044323136	-0.6221810096927114	-0.4352274764989853	-1.221255446772766e-08	3.115039556657484e-10	6.789793281210005e-08	4.497406021300807e-09	-2.244540044543507e-08	1.278645154239074e-07	-2.205084456413697e-08
1.03	-0.5629458117683689	-0.08755743729636496	0.5691716080105991	1.863918545284562	-0.4666867095638915	0.01408627620702837	-0.2617925293573805	1.386478165666535	1.386478165666482	-0.08289534741269559	-0.1745316680765717	0.2073229812412911	-0.01661415711221832	0.02924164378796655	0.01865188669612421	0.06255150614101274	-0.2095787371579006	-0.004462701213940931	-0.06752490097047041	-4.067746638039395e-05	-0.1569123978460651	-0.1569123978460772	-0.0214200510061651	-0.0001217126184030101	0.003363657757786993	-0.00266689948081655	-0.3414559042310173	0.007567800270315062	0.0001984042838987204	-0.2997066514815251	0.04153256850933444	0.03529565528427375	0.2897578457107391	-26.62391962165691	-11.58211219454186	2.555583497100174	7.186790115606166	-643.6965809246681	-50.36298147281016	-1.372564318877743	1.539715265669445	0.252834665030069	1.980152488671401	-6.868721127541187	-0.05015147591436942	-2.367529995605851	0.01095682820944462	-5.289826974176923	-5.289826974177259	-0.5177523010681577	0.01587416536181717	-0.623573846783401	-0.3868187803906459	-2.051341721050587e-08	-8.128402011351222e-09	1.093318857647057e-07	5.73254231151112e-09	-3.268770172756462e-08	1.789211250299001e-07	-3.406235861426037e-08
1.04	-0.5625758682768753	-0.08735817255333117	0.5698960792449035	1.861478895104688	-0.4667342009138768	0.01329339459964085	-0.2617928718008894	1.384644584727754	1.384644584727357	-0.08313677166831041	-0.1745326164416479	0.2073251939508378	-0.01666077108741484	0.04475317661592001	0.02120738604018844	0.08233229621633034	-0.2783324520494386	-0.005021258722675687	-0.09103764416097117	-2.469310833376745e-05	-0.2097959543350468	-0.2097959543350606	-0.02685931042713909	-5.734187256370809e-05	-0.002934536046252952	-0.006645660770578704	-0.3411219429211861	0.007768498055261571	0.0001501518586096811	-0.299406951892321	0.04140715097793676	0.0353752225633167	0.2895378336927842	-26.64508812816703	-11.6236156635887	2.574369572253792	7.099323844045123	-643.4630085362402	-50.38404703155365	-1.4087869016381	1.572199978959748	0.2590809263443289	1.977078595537757	-6.894317667896129	-0.07153929603698336	-2.322853868229867	-0.01805378709176466	-5.287777441377025	-5.287777441376902	-0.5978946820934238	-0.01567916566609778	-0.6382845600546925	-0.423038156217665	-2.735419598846107e-08	-1.344447451627012e-08	1.521871819812937e-07	7.393042498687359e-09	-4.186529192504463e-08	2.266576790414042e-07	-4.484362904137885e-08
1.05	-0.5620506133032362	-0.08713314727964756	0.570817961774947	1.858352482260161	-0.4667866552853422	0.01226605771606269	-0.2617930076489394	1.382282484146328	1.382282484145958	-0.0834323817741137	-0.1745323251282487	0.2072639445895744	-0.01674666573226451	0.06030390592853332	0.02380537438915799	0.1020255640753557	-0.3469090440961572	-0.005433731221818955	-0.1143888831478444	-2.669436251239818e-06	-0.2626087960933097	-0.2626087960933327	-0.03225030032853583	0.0001576384555960085	-0.009335975248647148	-0.01049993666113535	-0.3404224130577296	0.008012963912440258	7.237657183061899e-05	-0.29900086542186	0.04136784736809886	0.03553432684919229	0.2890542090858782	-26.61696343502623	-11.71686332842927	2.611194473937407	6.949237240370882	-642.8963985416268	-50.49621237819947	-1.456138609367202	1.547416831935068	0.2613154733382704	1.962643729241236	-6.833175807008936	-0.02073729727281914	-2.335166030057566	0.0123015041513525	-5.275721438716588	-5.275721438718024	-0.5078595617662423	0.0464406417542218	-0.6441689090649289	-0.3616426183819034	-3.414934714251555e-08	-1.866292722549848e-08	1.950868951748812e-07	9.066835307643781e-09	-5.100960990112934e-08	2.742904813155805e-07	-5.558645435527843e-08
